<?xml version="1.0" encoding="UTF-8" standalone="no" ?>
<!DOCTYPE svg PUBLIC "-//W3C//DTD SVG 1.1//EN" "http://www.w3.org/Graphics/SVG/1.1/DTD/svg11.dtd">
<svg xmlns="http://www.w3.org/2000/svg" xmlns:xlink="http://www.w3.org/1999/xlink" version="1.1" width="800" height="600" viewBox="0 0 800 600" xml:space="preserve">
<desc>Created with Fabric.js 6.5.3</desc>
<defs>
</defs>
<g transform="matrix(1 0 0 1 271.3748 201.9956)"  >
<path style="stroke: none; stroke-width: 1; stroke-dasharray: none; stroke-linecap: butt; stroke-dashoffset: 0; stroke-linejoin: miter; stroke-miterlimit: 4; fill: rgb(42,192,235); fill-rule: nonzero; opacity: 1;"  transform=" translate(-378.6967, -404.3272)" d="M 481.86 404.01 L 482.17 510.51 L 426.58 510.51 L 426.34 463.26 L 426.25 445.76 L 425.96 388.08 C 425.96 388.08 424.62 373.34 412.63 362.99 C 406.32 357.54 397.06 353.31 383.48 353.1 C 383.48 353.1 378.8 352.42 372.21 353.22 L 372.21 353.22 C 366.17 353.95 358.54 355.92 351.46 360.79 C 344.05 365.88 337.26 374.14 333.52 387.45 C 333.52 387.45 321.03 422.43 346.64 446.17 C 346.64 446.17 374.2 470.06 409.62 450.81 L 410.67 450.23 L 410.67 506.45 C 410.67 506.45 396.38 511.52 376.72 512.01 C 351.07 512.65 316.27 505.5 292.08 469.15 C 291.6195 468.4724 291.1727 467.7856 290.74 467.09 C 290.74 467.09 286.62 460.13 282.62 448.48 C 274.76 425.59 267.36 384.6 292.61 342.79 C 292.61 342.79 331.34 273.46 421.29 304.69 C 421.29 304.69 434.13 308.44 448.02 319.48 C 462.14 330.69 477.34 349.41 481.25 379.35 L 481.25 379.35 C 482.23 386.85 482.51 395.05 481.87 404 Z" stroke-linecap="round" />
</g>
<g transform="matrix(1 0 0 1 339.6131 189.7387)"  >
<linearGradient id="SVGID_A_0" gradientUnits="userSpaceOnUse" gradientTransform="matrix(1 0 0 1 0 0)"  x1="441.91" y1="476.04" x2="450.54" y2="333.33">
<stop offset="0%" style="stop-color:rgb(0,0,0);stop-opacity: 1"/>
<stop offset="61%" style="stop-color:rgb(133,133,133);stop-opacity: 0.48"/>
<stop offset="80%" style="stop-color:rgb(255,255,255);stop-opacity: 0"/>
</linearGradient>
<path style="stroke: none; stroke-width: 1; stroke-dasharray: none; stroke-linecap: butt; stroke-dashoffset: 0; stroke-linejoin: miter; stroke-miterlimit: 4; fill: url(#SVGID_A_0); fill-rule: nonzero; opacity: 0.5;"  transform=" translate(-446.935, -392.0703)" d="M 481.24 379.35 L 481.24 422.92 C 481.24 422.92 444.97 473.64 426.34 463.26 L 425.96 388.08 C 425.96 388.08 424.62 373.34 412.63 362.99 L 448.01 319.48 C 462.13 330.69 477.33 349.41 481.24 379.35 Z" stroke-linecap="round" />
</g>
<g transform="matrix(1 0 0 1 346.1231 255.3934)"  >
<path style="stroke: none; stroke-width: 1; stroke-dasharray: none; stroke-linecap: butt; stroke-dashoffset: 0; stroke-linejoin: miter; stroke-miterlimit: 4; fill: rgb(42,192,235); fill-rule: nonzero; opacity: 1;"  transform=" translate(-453.445, -457.725)" d="M 425.65 445.86 L 425.65 510.82 L 481.24 510.82 L 481.24 404.63 C 481.24 404.63 467.81 439.3 425.65 445.86 Z" stroke-linecap="round" />
</g>
<g transform="matrix(1 0 0 1 238.7931 230.2235)"  >
<linearGradient id="SVGID_B_1" gradientUnits="userSpaceOnUse" gradientTransform="matrix(1 0 0 1 0 0)"  x1="282.6" y1="432.55" x2="409.61" y2="432.55">
<stop offset="0%" style="stop-color:rgb(0,0,0);stop-opacity: 1"/>
<stop offset="43%" style="stop-color:rgb(133,133,133);stop-opacity: 0.48"/>
<stop offset="80%" style="stop-color:rgb(255,255,255);stop-opacity: 0"/>
</linearGradient>
<path style="stroke: none; stroke-width: 1; stroke-dasharray: none; stroke-linecap: butt; stroke-dashoffset: 0; stroke-linejoin: miter; stroke-miterlimit: 4; fill: url(#SVGID_B_1); fill-rule: nonzero; opacity: 0.5;"  transform=" translate(-346.115, -432.5551)" d="M 409.61 450.81 C 403.65 468.61 389.59 492.76 376.71 512.01 C 351.06 512.65 316.26 505.5 292.07 469.15 C 291.6095 468.4724 291.1627 467.7856 290.73 467.09 C 290.73 467.09 286.61 460.13 282.61 448.48 C 305.58 345.57 371.39 353.12 372.21 353.22 C 366.17 353.95 358.54 355.92 351.46 360.79 C 344.05 365.88 337.26 374.14 333.52 387.45 C 333.52 387.45 321.03 422.43 346.64 446.17 C 346.64 446.17 374.2 470.06 409.62 450.81 Z" stroke-linecap="round" />
</g>
<g transform="matrix(1 0 0 1 509.8213 203.774)"  >
<path style="stroke: none; stroke-width: 1; stroke-dasharray: none; stroke-linecap: butt; stroke-dashoffset: 0; stroke-linejoin: miter; stroke-miterlimit: 4; fill: rgb(139,221,40); fill-rule: nonzero; opacity: 1;"  transform=" translate(-617.1432, -406.1056)" d="M 616.55 509.26 L 510.05 508.68 L 510.52 453.09 L 557.77 453.24 L 575.27 453.3 L 632.95 453.49 C 632.95 453.49 647.7 452.27 658.15 440.37 C 663.66 434.11 667.96 424.88 668.29 411.31 C 668.29 411.31 669.01 406.63 668.27 400.04 L 668.27 400.04 C 667.59 393.99 665.69 386.34 660.87 379.22 C 655.84 371.77 647.64 364.91 634.36 361.05 C 634.36 361.05 599.49 348.26 575.54 373.67 C 575.54 373.67 551.42 401.03 570.37 436.6 C 570.55 436.95 570.75 437.3 570.94 437.65 L 514.72 437.18 C 514.72 437.18 509.77 422.85 509.45 403.19 C 509.03 377.53 516.47 342.8 553.02 318.91 L 555.09 317.58 C 555.09 317.58 562.09 313.52 573.77 309.62 C 596.73 301.95 637.78 294.9 679.37 320.5 C 679.37 320.5 748.38 359.81 716.39 449.49 C 716.39 449.49 712.53 462.29 701.37 476.1 C 690.05 490.12 671.19 505.17 641.22 508.83 L 641.22 508.83 C 633.72 509.75 625.52 509.95 616.57 509.25 Z" stroke-linecap="round" />
</g>
<g transform="matrix(1 0 0 1 521.5098 272.2684)"  >
<linearGradient id="SVGID_C_2" gradientUnits="userSpaceOnUse" gradientTransform="matrix(1 0 0 1 0 0)"  x1="544.895" y1="468.678" x2="687.528" y2="478.503">
<stop offset="0%" style="stop-color:rgb(0,0,0);stop-opacity: 1"/>
<stop offset="61%" style="stop-color:rgb(133,133,133);stop-opacity: 0.48"/>
<stop offset="80%" style="stop-color:rgb(255,255,255);stop-opacity: 0"/>
</linearGradient>
<path style="stroke: none; stroke-width: 1; stroke-dasharray: none; stroke-linecap: butt; stroke-dashoffset: 0; stroke-linejoin: miter; stroke-miterlimit: 4; fill: url(#SVGID_C_2); fill-rule: nonzero; opacity: 0.5;"  transform=" translate(-628.8317, -474.6)" d="M 641.21 508.84 L 597.64 508.47 C 597.64 508.47 547.23 471.78 557.76 453.23 L 632.94 453.48 C 632.94 453.48 647.69 452.26 658.14 440.36 L 701.35 476.1 C 690.03 490.12 671.17 505.17 641.2 508.83 Z" stroke-linecap="round" />
</g>
<g transform="matrix(1 0 0 1 455.5181 278.0484)"  >
<path style="stroke: none; stroke-width: 1; stroke-dasharray: none; stroke-linecap: butt; stroke-dashoffset: 0; stroke-linejoin: miter; stroke-miterlimit: 4; fill: rgb(139,221,40); fill-rule: nonzero; opacity: 1;"  transform=" translate(-562.84, -480.38)" d="M 575.18 452.69 L 510.22 452.14 L 509.75 507.73 L 615.93 508.62 C 615.93 508.62 581.38 494.9 575.17 452.68 Z" stroke-linecap="round" />
</g>
<g transform="matrix(1 0 0 1 481.6181 170.7884)"  >
<linearGradient id="SVGID_D_3" gradientUnits="userSpaceOnUse" gradientTransform="matrix(1 0 0 1 0 0)"  x1="589.718" y1="309.748" x2="588.654" y2="436.743">
<stop offset="0%" style="stop-color:rgb(0,0,0);stop-opacity: 1"/>
<stop offset="43%" style="stop-color:rgb(133,133,133);stop-opacity: 0.48"/>
<stop offset="80%" style="stop-color:rgb(255,255,255);stop-opacity: 0"/>
</linearGradient>
<path style="stroke: none; stroke-width: 1; stroke-dasharray: none; stroke-linecap: butt; stroke-dashoffset: 0; stroke-linejoin: miter; stroke-miterlimit: 4; fill: url(#SVGID_D_3); fill-rule: nonzero; opacity: 0.5;"  transform=" translate(-588.94, -373.12)" d="M 570.36 436.61 C 552.61 430.5 528.58 416.24 509.44 403.2 C 509.02 377.54 516.46 342.81 553.01 318.92 L 555.08 317.59 C 555.08 317.59 562.08 313.53 573.76 309.63 C 676.47 333.46 668.37 399.21 668.27 400.03 C 667.59 393.98 665.69 386.33 660.87 379.22 C 655.84 371.77 647.64 364.91 634.36 361.05 C 634.36 361.05 599.49 348.26 575.54 373.67 C 575.54 373.67 551.42 401.03 570.37 436.6 Z" stroke-linecap="round" />
</g>
<g transform="matrix(1 0 0 1 160.2281 381.3784)"  >
<path style="stroke: none; stroke-width: 1; stroke-dasharray: none; stroke-linecap: butt; stroke-dashoffset: 0; stroke-linejoin: miter; stroke-miterlimit: 4; fill: rgb(0,0,0); fill-rule: nonzero; opacity: 1;"  transform=" translate(-267.55, -583.71)" d="M 293.98 605.75 C 294.38 605.87 294.57 606.24 294.57 606.85 L 294.57 615.34 C 294.57 616.01 293.93 616.34 292.65 616.34 L 288.18 616.34 C 285.08 616.34 282.38 615.49 280.1 613.78 C 277.82 612.08 276.16 609.76 275.13 606.84 C 273.73 608.79 271.83 610.41 269.43 611.72 C 267.03 613.03 264.36 613.68 261.44 613.68 C 258.52 613.68 255.89 613.22 253.36 612.31 C 250.84 611.4 248.63 610.1 246.74 608.43 C 244.85 606.76 243.35 604.72 242.22 602.32 C 241.09 599.92 240.53 597.19 240.53 594.15 C 240.53 591.11 240.97 588.39 241.85 585.8 C 242.6873 583.2892 244.0744 580.9968 245.91 579.09 C 247.73 577.2 250.03 575.73 252.8 574.66 C 255.57 573.59 258.81 573.06 262.52 573.06 L 283.6 573.06 L 283.6 596.06 C 283.6 599.59 284.16 602.05 285.29 603.45 C 286.41 604.85 288.32 605.55 290.99 605.55 L 292.63 605.55 C 293.12 605.55 293.56 605.61 293.95 605.73 Z M 259.9 551.08 L 259.9 561.48 L 249.5 561.48 L 249.5 551.08 L 259.9 551.08 Z M 265.51 602.83 C 266.63 602.46 267.62 601.89 268.48 601.1 C 269.34 600.31 270.03 599.27 270.58 598 C 271.13 596.73 271.4 595.2 271.4 593.44 L 271.4 583.49 L 262.55 583.49 C 259.33 583.49 256.91 584.45 255.3 586.37 C 253.69 588.29 252.88 590.89 252.88 594.17 C 252.88 597.27 253.67 599.59 255.25 601.11 C 256.83 602.63 259.11 603.39 262.09 603.39 C 263.2521 603.3913 264.4069 603.2056 265.51 602.84 Z M 275.5 551.08 L 275.5 561.48 L 265 561.48 L 265 551.08 L 275.5 551.08 Z" stroke-linecap="round" />
</g>
<g transform="matrix(1 0 0 1 219.4431 381.3734)"  >
<path style="stroke: none; stroke-width: 1; stroke-dasharray: none; stroke-linecap: butt; stroke-dashoffset: 0; stroke-linejoin: miter; stroke-miterlimit: 4; fill: rgb(0,0,0); fill-rule: nonzero; opacity: 1;"  transform=" translate(-326.765, -583.705)" d="M 336.37 597.08 C 336.37 592.21 335.43 588.68 333.54 586.49 C 331.65 584.3 328.95 583.2 325.42 583.2 L 296.76 583.2 L 296.76 573.07 L 318.66 551.08 L 332.44 551.08 L 310.81 573.07 L 325.32 573.07 C 333.78 573.07 339.89 575.05 343.66 579 C 347.43 582.95 349.32 588.67 349.32 596.16 L 349.32 597.62 C 349.38 599.08 349.72 600.31 350.32 601.32 C 350.93 602.32 351.69 603.15 352.6 603.78 C 353.5233 604.4277 354.5619 604.8927 355.66 605.15 C 356.79 605.42 357.9 605.56 358.99 605.56 L 360.91 605.56 C 361.4 605.56 361.84 605.62 362.23 605.74 C 362.63 605.86 362.82 606.23 362.82 606.84 L 362.82 615.33 C 362.82 616 362.18 616.33 360.9 616.33 L 358.98 616.33 C 358.13 616.33 357.23 616.19 356.29 615.92 C 355.3362 615.6457 354.4169 615.2632 353.55 614.78 C 352.681 614.2999 351.8833 613.7008 351.18 613 C 350.48 612.3 349.95 611.49 349.58 610.58 L 349.21 610.58 C 349.09 611.25 348.84 612.16 348.48 613.32 C 348.12 614.48 347.63 615.48 347.02 616.33 L 292.63 616.33 C 291.35 616.33 290.71 616 290.71 615.33 L 290.71 606.84 C 290.71 606.23 290.91 605.87 291.3 605.74 C 291.7289 605.616 292.1736 605.5553 292.62 605.56 L 336.33 605.56 L 336.33 597.07 Z" stroke-linecap="round" />
</g>
<g transform="matrix(1 0 0 1 275.2431 404.2384)"  >
<path style="stroke: none; stroke-width: 1; stroke-dasharray: none; stroke-linecap: butt; stroke-dashoffset: 0; stroke-linejoin: miter; stroke-miterlimit: 4; fill: rgb(0,0,0); fill-rule: nonzero; opacity: 1;"  transform=" translate(-382.565, -606.57)" d="M 359 615.33 L 359 606.84 C 359 606.23 359.2 605.87 359.59 605.74 C 360.0189 605.616 360.4636 605.5553 360.91 605.56 L 373.14 605.56 C 373.75 605.56 374.42 605.45 375.15 605.24 C 375.88 605.03 376.56 604.65 377.2 604.1 C 377.84 603.55 378.37 602.82 378.8 601.91 C 379.23 601 379.44 599.84 379.44 598.44 L 379.44 577.45 L 392.4 577.45 L 392.4 596.62 C 392.4 598.2 392.63 599.56 393.08 600.68 C 393.54 601.8 394.13 602.73 394.86 603.46 C 395.59 604.19 396.43 604.72 397.37 605.06 C 398.31 605.39 399.24 605.56 400.15 605.56 L 404.26 605.56 C 404.75 605.56 405.19 605.62 405.58 605.74 C 405.98 605.86 406.17 606.23 406.17 606.84 L 406.17 615.33 C 406.17 616 405.53 616.33 404.25 616.33 L 400.14 616.33 C 398.98 616.33 397.83 616.15 396.67 615.78 C 395.51 615.41 394.42 614.94 393.38 614.37 C 392.34 613.8 391.39 613.12 390.51 612.36 C 389.63 611.6 388.88 610.82 388.27 610.03 C 387.18 611.31 385.94 612.34 384.57 613.13 C 383.2 613.92 381.83 614.56 380.46 615.05 C 379.09 615.54 377.77 615.87 376.49 616.05 C 375.21 616.23 374.09 616.32 373.11 616.32 L 360.88 616.32 C 359.6 616.32 358.96 615.99 358.96 615.32 Z M 392.31 625.01 L 392.31 635.69 L 379.35 635.69 L 379.35 625.01 L 392.31 625.01 Z" stroke-linecap="round" />
</g>
<g transform="matrix(1 0 0 1 341.9381 374.4884)"  >
<path style="stroke: none; stroke-width: 1; stroke-dasharray: none; stroke-linecap: butt; stroke-dashoffset: 0; stroke-linejoin: miter; stroke-miterlimit: 4; fill: rgb(0,0,0); fill-rule: nonzero; opacity: 1;"  transform=" translate(-449.26, -576.82)" d="M 458.07 614.92 C 455.79 613.8 454.31 612.35 453.64 610.59 L 453.27 610.59 C 451.87 612.66 450.05 614.18 447.79 615.15 C 445.53 616.12 442.71 616.61 439.3 616.61 C 435.89 616.61 433.23 616.05 430.95 614.92 C 428.67 613.8 427.19 612.35 426.52 610.59 L 426.15 610.59 C 426.09 610.96 425.8 611.46 425.28 612.1 C 424.76 612.74 424.09 613.38 423.27 614.02 C 422.45 614.66 421.51 615.21 420.44 615.66 C 419.37 616.11 418.27 616.34 417.11 616.34 L 404.24 616.34 C 402.96 616.34 402.32 616.01 402.32 615.34 L 402.32 606.85 C 402.32 606.24 402.52 605.88 402.91 605.75 C 403.3389 605.626 403.7836 605.5653 404.23 605.57 L 410.25 605.57 C 411.83 605.57 413.08 605.08 413.99 604.11 C 414.9 603.14 415.36 601.49 415.36 599.18 L 415.36 581.11 L 428.32 581.11 L 428.32 599.64 C 428.32 601.95 429 603.6 430.37 604.57 C 431.74 605.54 433.55 606.03 435.8 606.03 C 438.05 606.03 439.72 605.54 440.82 604.57 C 441.91 603.6 442.46 601.95 442.46 599.64 L 442.46 579.38 L 455.42 579.38 L 455.42 599.64 C 455.42 601.95 456.1 603.6 457.47 604.57 C 458.84 605.54 460.65 606.03 462.9 606.03 C 465.15 606.03 466.82 605.54 467.92 604.57 C 469.02 603.6 469.56 601.95 469.56 599.64 L 469.56 577.46 L 482.52 577.46 L 482.52 599.18 C 482.52 601.49 482.98 603.13 483.89 604.11 C 484.8 605.08 486.05 605.57 487.63 605.57 L 494.29 605.57 C 494.78 605.57 495.22 605.63 495.61 605.75 C 496.01 605.87 496.2 606.24 496.2 606.85 L 496.2 615.34 C 496.2 616.01 495.56 616.34 494.28 616.34 L 490.08 616.34 C 489.23 616.34 488.33 616.2 487.39 615.93 C 486.4362 615.6557 485.5169 615.2732 484.65 614.79 C 483.781 614.3099 482.9833 613.7108 482.28 613.01 C 481.58 612.31 481.05 611.5 480.68 610.59 L 480.31 610.59 C 478.91 612.66 477.09 614.18 474.83 615.15 C 472.57 616.12 469.75 616.61 466.34 616.61 C 462.93 616.61 460.27 616.05 457.99 614.92 Z M 445.88 551.08 L 445.88 561.48 L 435.48 561.48 L 435.48 551.08 L 445.88 551.08 Z M 453.73 537.03 L 453.73 547.43 L 443.23 547.43 L 443.23 537.03 L 453.73 537.03 Z M 461.49 551.08 L 461.49 561.48 L 450.99 561.48 L 450.99 551.08 L 461.49 551.08 Z" stroke-linecap="round" />
</g>
<g transform="matrix(1 0 0 1 443.4581 392.2434)"  >
<path style="stroke: none; stroke-width: 1; stroke-dasharray: none; stroke-linecap: butt; stroke-dashoffset: 0; stroke-linejoin: miter; stroke-miterlimit: 4; fill: rgb(0,0,0); fill-rule: nonzero; opacity: 1;"  transform=" translate(-550.78, -594.575)" d="M 506.66 551.08 L 519.62 551.08 L 519.62 616.33 L 494.25 616.33 C 492.97 616.33 492.33 616 492.33 615.33 L 492.33 606.84 C 492.33 606.23 492.53 605.87 492.92 605.74 C 493.3489 605.616 493.7936 605.5553 494.24 605.56 L 506.65 605.56 L 506.65 551.08 Z M 530.57 551.08 L 543.53 551.08 L 543.53 616.33 L 530.57 616.33 L 530.57 551.08 Z M 608.64 605.75 C 609.04 605.87 609.23 606.24 609.23 606.85 L 609.23 615.34 C 609.23 616.01 608.59 616.34 607.31 616.34 L 605.39 616.34 C 604.54 616.34 603.64 616.2 602.7 615.93 C 601.7462 615.6557 600.8269 615.2732 599.96 614.79 C 599.0984 614.317 598.3129 613.7169 597.63 613.01 C 596.96 612.31 596.44 611.5 596.08 610.59 L 595.71 610.59 L 595.71 614.88 C 595.71 618.35 595.42 621.5 594.84 624.33 C 594.26 627.16 593.32 629.59 592.01 631.63 C 590.7 633.67 588.95 635.25 586.76 636.38 C 584.57 637.51 581.83 638.07 578.55 638.07 C 577.15 638.07 575.74 637.95 574.31 637.7 C 572.88 637.45 571.59 637.09 570.43 636.61 L 570.43 627.21 C 571.1436 627.6933 571.9512 628.0204 572.8 628.17 C 573.65 628.32 574.59 628.4 575.63 628.4 C 578.25 628.4 580.07 627.29 581.11 625.07 C 582.14 622.85 582.66 619.46 582.66 614.89 L 582.66 577.47 L 595.71 577.47 L 595.71 598.09 C 595.71 599.67 596 600.95 596.58 601.92 C 597.16 602.89 597.92 603.65 598.86 604.2 C 599.8 604.75 600.85 605.11 602.01 605.29 C 603.128 605.4669 604.2581 605.5572 605.39 605.56 L 607.31 605.56 C 607.8 605.56 608.24 605.62 608.63 605.74 Z" stroke-linecap="round" />
</g>
<g transform="matrix(1 0 0 1 575.2331 381.7483)"  >
<path style="stroke: none; stroke-width: 1; stroke-dasharray: none; stroke-linecap: butt; stroke-dashoffset: 0; stroke-linejoin: miter; stroke-miterlimit: 4; fill: rgb(0,0,0); fill-rule: nonzero; opacity: 1;"  transform=" translate(-682.555, -584.08)" d="M 605.31 615.33 L 605.31 606.84 C 605.31 606.23 605.51 605.87 605.9 605.74 C 606.3289 605.616 606.7736 605.5553 607.22 605.56 L 616.44 605.56 L 616.44 605.19 C 615.04 603.91 613.84 602.25 612.84 600.22 C 611.84 598.18 611.33 596.1 611.33 593.97 C 611.33 590.32 611.92 587.11 613.11 584.34 C 614.3 581.57 615.95 579.23 618.08 577.31 C 620.21 575.39 622.72 573.95 625.61 572.98 C 628.5 572.01 631.65 571.52 635.06 571.52 C 638.47 571.52 641.63 571.98 644.55 572.89 C 647.47 573.8 650.01 575.2 652.17 577.09 C 654.33 578.98 656.03 581.32 657.28 584.12 C 658.53 586.92 659.15 590.2 659.15 593.98 C 659.15 597.76 658.53 601.04 657.28 603.84 C 656.03 606.64 654.33 608.97 652.17 610.82 C 650.01 612.67 647.47 614.06 644.55 614.97 C 641.63 615.88 638.47 616.34 635.06 616.34 L 607.23 616.34 C 605.95 616.34 605.31 616.01 605.31 615.34 Z M 627.12 602.74 C 628.88 604.99 631.53 606.12 635.06 606.12 C 636.82 606.12 638.36 605.8 639.67 605.16 C 640.9436 604.5444 642.0667 603.6569 642.96 602.56 C 643.84 601.46 644.51 600.19 644.97 598.73 C 645.43 597.27 645.65 595.69 645.65 593.98 C 645.65 592.27 645.42 590.68 644.97 589.19 C 644.51 587.7 643.85 586.39 642.96 585.27 C 642.08 584.15 640.98 583.26 639.67 582.62 C 638.36 581.98 636.83 581.66 635.06 581.66 C 633.29 581.66 631.76 581.98 630.45 582.62 C 629.14 583.26 628.05 584.14 627.16 585.27 C 626.28 586.4 625.61 587.7 625.15 589.19 C 624.69 590.68 624.47 592.28 624.47 593.98 C 624.47 597.57 625.35 600.49 627.12 602.74 Z M 668.28 551.08 L 681.24 551.08 L 681.24 616.33 L 668.28 616.33 L 668.28 551.08 Z M 716.87 625.46 C 719.46 623.51 721.05 620.47 721.66 616.33 L 710.34 616.33 C 707.3 616.33 704.55 615.84 702.08 614.87 C 699.61 613.9 697.52 612.51 695.78 610.72 C 694.05 608.93 692.71 606.73 691.76 604.15 C 690.82 601.56 690.34 598.66 690.34 595.43 C 690.335 592.4398 690.7353 589.4627 691.53 586.58 C 692.32 583.72 693.61 581.16 695.41 578.91 C 697.21 576.66 699.55 574.86 702.44 573.53 C 705.33 572.19 708.84 571.52 712.98 571.52 C 717.12 571.52 720.62 572.16 723.48 573.44 C 726.34 574.72 728.67 576.54 730.46 578.92 C 732.25 581.3 733.55 584.18 734.34 587.59 C 735.13 591 735.53 594.86 735.53 599.18 C 735.53 606.12 735 612.05 733.93 616.98 C 732.87 621.91 731.19 625.92 728.91 629.03 C 726.63 632.14 723.69 634.41 720.1 635.87 C 716.51 637.33 712.16 638.06 707.05 638.06 C 705.77 638.06 704.62 638 703.58 637.88 C 702.54 637.76 701.66 637.61 700.93 637.42 C 700.08 637.18 699.32 636.93 698.65 636.69 L 698.65 626.93 C 699.87 627.42 701.02 627.78 702.12 628.02 C 703.21 628.26 704.4 628.39 705.68 628.39 C 710.55 628.39 714.27 627.42 716.86 625.47 Z M 703.73 599.73 C 704 601.01 704.51 602.09 705.24 602.97 C 705.97 603.85 706.96 604.51 708.21 604.93 C 709.46 605.35 711.05 605.57 713 605.57 L 722.67 605.57 L 722.67 598.82 C 722.67 596.14 722.52 593.74 722.21 591.61 C 721.91 589.48 721.39 587.69 720.66 586.23 C 719.93 584.77 718.94 583.65 717.69 582.85 C 716.44 582.06 714.88 581.66 712.99 581.66 C 711.1 581.66 709.64 582.04 708.43 582.8 C 707.22 583.56 706.22 584.58 705.46 585.86 C 704.7 587.14 704.15 588.6 703.82 590.24 C 703.49 591.88 703.32 593.56 703.32 595.26 C 703.32 596.96 703.46 598.45 703.73 599.73 Z M 745.57 540.59 L 745.57 540.32 C 745.195 539.8163 744.8889 539.2648 744.66 538.68 C 744.42 538.08 744.29 537.43 744.29 536.76 C 744.29 534.63 745 532.99 746.44 531.83 C 747.87 530.67 749.74 530.1 752.05 530.1 C 752.9595 530.098 753.8648 530.2226 754.74 530.47 C 755.5946 530.6978 756.3986 531.0845 757.11 531.61 C 757.81 532.13 758.39 532.8 758.84 533.62 C 759.29 534.44 759.55 535.43 759.62 536.59 L 754.69 536.59 C 754.63 535.74 754.36 535.1 753.87 534.67 C 753.38 534.24 752.78 534.03 752.04 534.03 C 751.37 534.03 750.79 534.3 750.31 534.85 C 749.82 535.4 749.58 536.19 749.58 537.22 C 749.58 539.29 750.43 540.41 752.13 540.6 L 759.8 540.6 L 759.8 544.8 L 742.64 544.8 L 742.64 540.6 L 745.56 540.6 Z M 744.66 551.08 L 757.62 551.08 L 757.62 616.33 L 744.66 616.33 L 744.66 551.08 Z" stroke-linecap="round" />
</g>
<g transform="matrix(1 0 0 1 392.6792 478.7743)"  >
<path style="stroke: none; stroke-width: 1; stroke-dasharray: none; stroke-linecap: butt; stroke-dashoffset: 0; stroke-linejoin: miter; stroke-miterlimit: 4; fill: rgb(0,0,0); fill-rule: nonzero; opacity: 1;"  transform=" translate(-500.0011, -681.1059)" d="M 391.53 664.61 C 391.09 661.11 389.6 659.28 386.91 659.05 C 384.23 658.82 382.59 660.11 381.53 663.49 L 377.5 676.81 L 372.73 692.47 C 371.69 692.01 371.72 691.29 371.53 690.67 L 363.77 665.12 C 362.29 660.26 360.86 658.78 357.9 659.03 C 354.91 659.28 353.65 661.28 353.04 666.3 L 348.82 700.18 C 348.71 701.05 347.62 702.9 349.77 702.51 C 351.37 702.22 354.16 704.5 354.55 700.61 C 355.19 694.1 356.05 687.61 356.84 681.12 L 358.42 668.67 C 359.49 669.32 359.52 670.15 359.74 670.84 L 364.99 687.95 L 368.67 699.6 C 369.23 701.34 370.24 702.62 372.3 702.64 C 374.47 702.66 375.55 701.39 376.16 699.51 L 376.78 697.62 L 385.19 670.49 C 385.37 669.9 385.25 669.11 386.15 668.95 C 386.72 669.19 386.58 669.72 386.63 670.14 L 390.19 700.08 C 390.29 700.94 389.92 702.3 391.11 702.51 C 392.58 702.76 394.3 702.96 395.59 702.41 C 396.84 701.88 396.04 700.2 395.9 699.07 L 391.53 664.64 Z M 307.98 659.77 C 305.94 659.78 305.01 660.05 305.05 662.49 C 305.22 671.59 305.16 680.7 305.1 689.81 C 305.06 695.56 301.6 698.64 296.01 698.09 C 291.62 697.66 289.2 694.69 289.18 689.53 L 289.24 662.21 C 289.29 659.67 288.06 659.85 286.34 659.79 C 284.45 659.72 283.44 659.92 283.52 662.31 C 283.72 668.28 283.6 674.26 283.58 680.24 C 283.58 683.94 283.71 687.65 283.44 691.33 C 283.12 695.7 280.06 698.18 275.52 698.14 C 271.13 698.11 268.3 695.65 267.81 691.4 C 267.68 690.27 267.69 689.13 267.69 687.99 L 267.74 661.81 C 267.77 659.74 266.7 659.59 265.29 659.87 C 264.09 660.11 261.98 658.68 261.99 661.5 L 262.1 690.81 C 262.25 696.4 265.08 700.65 270.55 702.45 C 275.84 704.19 280.92 703.66 284.98 699.39 C 286.15 698.16 286.6 698.22 287.76 699.39 C 292.04 703.76 297.26 704.2 302.74 702.27 C 307.67 700.53 310.57 695.94 310.65 690.24 L 310.66 676.58 L 310.67 676.58 C 310.67 671.84 310.53 667.09 310.73 662.35 C 310.82 660.07 309.97 659.73 307.97 659.74 Z M 666.68 681.07 C 665.37 680.08 664.89 679.68 666.31 678.2 C 670.25 674.1 670.03 666.53 665.78 662.76 C 661.1 658.62 655.54 658.01 649.78 660.08 C 644.73 661.89 641.57 666.87 641.52 672.57 L 641.52 685.95 C 641.52 690.69 641.69 695.44 641.45 700.18 C 641.33 702.64 642.45 702.71 644.28 702.65 C 645.98 702.6 647.25 702.81 647.19 700.25 C 647.01 691.15 647.08 682.04 647.13 672.93 C 647.16 666.44 652.01 662.84 658.23 664.58 C 661.69 665.55 663.73 668.31 663.49 671.72 C 663.27 674.76 660.97 677.15 657.51 677.58 C 655.45 677.84 653.34 677.86 651.26 677.79 C 648.88 677.71 649.67 679.41 649.63 680.55 C 649.59 681.64 649.04 683.14 651.21 683.04 C 653.48 682.93 655.77 682.9 658.04 683.08 C 662.89 683.47 665.41 686.08 665.36 690.42 C 665.31 694.69 662.94 697 658.01 697.35 C 655.74 697.51 653.45 697.5 651.18 697.39 C 649.28 697.29 649.46 698.55 649.64 699.61 C 649.83 700.67 648.55 702.6 650.98 702.59 C 654.39 702.58 657.83 702.94 661.21 702.29 C 666 701.38 669.4 698.64 670.57 693.84 C 671.76 688.93 671.02 684.34 666.67 681.06 Z M 508.04 676.13 C 508.04 674.52 507.93 672.9 507.66 671.32 C 505.78 660.18 493.05 655.18 484.23 662.12 C 480.09 665.38 478.72 669.99 478.64 674.98 L 478.55 700.59 C 478.5 703.53 480.48 702.4 481.83 702.6 C 483.47 702.83 484.42 702.54 484.32 700.41 C 484.12 696.06 484.26 691.69 484.26 687.32 L 484.26 680.21 C 484.28 677.84 484.18 675.45 484.4 673.1 C 485.08 665.75 491.98 661.84 497.91 665.45 C 501.69 667.75 502.32 671.56 502.42 675.6 C 502.46 677.36 501.82 677.9 500.11 677.85 C 496.41 677.75 492.7 677.98 489.01 677.76 C 486.67 677.62 486.76 678.81 486.69 680.49 C 486.61 682.38 487 683.18 489.12 683.06 C 492.43 682.87 495.78 683.22 499.08 682.95 C 501.95 682.72 502.58 683.79 502.45 686.45 C 502.23 690.9 502.5 695.37 502.34 699.82 C 502.26 701.98 502.75 702.73 505.08 702.7 C 507.35 702.67 508.17 702.23 508.11 699.76 C 507.94 691.89 508.07 684.01 508.03 676.14 Z M 772.56 672.16 C 771.98 665.17 767.01 660.16 760.55 659.23 C 750.9 657.85 743.68 664.25 743.46 674.7 C 743.27 683.33 743.52 691.97 743.36 700.6 C 743.31 703.3 744.98 702.53 746.33 702.59 C 747.82 702.66 749.31 703.02 749.17 700.46 C 748.94 696.11 749.11 691.74 749.11 687.37 L 749.23 687.37 C 749.23 682.53 748.95 677.68 749.3 672.86 C 749.8 666.07 756.06 662.26 761.93 665.01 C 766.21 667.02 767.09 670.95 767.23 675.24 C 767.29 677.17 766.78 677.94 764.72 677.85 C 760.93 677.7 757.13 677.9 753.33 677.77 C 751 677.69 751.64 679.26 751.61 680.45 C 751.58 681.69 751.12 683.13 753.4 683.03 C 757.09 682.87 760.81 683.1 764.5 682.94 C 766.58 682.85 767.31 683.4 767.24 685.6 C 767.07 690.72 767.26 695.85 767.15 700.97 C 767.11 702.84 768.27 702.77 769.34 702.54 C 770.56 702.27 772.83 703.75 772.82 701.16 C 772.8 691.49 773.36 681.79 772.55 672.14 Z M 703.73 671.81 C 702.49 663.17 695.5 657.99 686.88 659.24 C 679.52 660.31 674.84 666.15 674.65 675.02 C 674.46 683.55 674.68 692.09 674.56 700.62 C 674.52 703.59 676.53 702.39 677.86 702.59 C 679.44 702.82 680.47 702.63 680.37 700.44 C 680.16 696.09 680.31 691.72 680.31 687.36 L 680.35 687.36 C 680.35 682.71 680.15 678.06 680.4 673.43 C 680.81 665.92 687.8 661.81 693.87 665.42 C 697.57 667.62 698.29 671.29 698.43 675.24 C 698.5 677.17 697.97 677.95 695.91 677.87 C 692.22 677.72 688.51 677.95 684.82 677.78 C 682.72 677.68 682.75 678.82 682.86 680.23 C 682.96 681.5 682.22 683.17 684.73 683.05 C 688.23 682.89 691.76 683.16 695.25 682.96 C 697.68 682.82 698.59 683.41 698.46 686.04 C 698.23 690.86 698.37 695.71 698.42 700.54 C 698.42 701.27 697.92 702.22 699.24 702.6 C 702.51 703.54 704.06 702.46 704.06 699.09 L 704.05 676.34 C 704.05 674.83 703.96 673.3 703.75 671.81 Z M 336.04 659.84 C 326.36 656.5 316.99 663.08 316.56 673.56 C 316.38 678.01 316.53 682.48 316.53 686.94 L 316.5 686.94 C 316.5 691.3 316.64 695.67 316.44 700.03 C 316.34 702.25 317.08 702.74 319.15 702.68 C 321.11 702.62 322.16 702.52 322.11 700 C 321.92 691.56 321.99 683.11 322.06 674.67 C 322.1 669.55 324.35 666.02 328.17 664.72 C 334.96 662.41 340.59 667.63 340.2 675.76 C 340.12 677.4 339.51 677.88 337.98 677.85 C 334.09 677.79 330.19 677.93 326.31 677.79 C 323.98 677.71 324.61 679.24 324.59 680.43 C 324.57 681.66 324.07 683.14 326.35 683.05 C 330.05 682.91 333.76 683.12 337.45 682.97 C 339.54 682.88 340.28 683.47 340.21 685.66 C 340.05 690.68 340.24 695.72 340.12 700.74 C 340.07 702.63 341.09 702.88 342.4 702.56 C 343.6 702.27 345.83 703.82 345.85 701.19 C 345.91 691.89 346.09 682.58 345.69 673.3 C 345.42 667 342.39 662.03 336.05 659.84 Z M 635.27 693.12 C 635.12 686.11 635.84 679.06 634.91 672.08 C 633.79 663.69 627.55 658.52 619.73 659.03 C 611.69 659.56 606.15 665.49 605.94 673.93 C 605.84 678.2 605.92 682.47 605.92 686.74 L 605.91 686.74 C 605.91 691.1 606.04 695.47 605.86 699.83 C 605.77 702.06 606.41 702.71 608.66 702.68 C 610.81 702.65 611.55 702.2 611.51 699.88 C 611.36 691.44 611.37 682.99 611.48 674.55 C 611.57 666.99 617.08 662.56 623.53 664.71 C 627.56 666.05 629.7 670.01 629.6 675.54 C 629.57 677.26 629.03 677.88 627.29 677.84 C 623.5 677.74 619.69 677.94 615.9 677.76 C 613.75 677.66 613.9 678.87 613.98 680.23 C 614.06 681.52 613.36 683.16 615.86 683.03 C 619.36 682.86 622.89 683.13 626.39 682.94 C 628.81 682.81 629.74 683.4 629.62 686.03 C 629.39 690.76 629.54 695.51 629.57 700.26 C 629.57 700.97 629.16 702.04 629.98 702.34 C 631.5 702.9 633.21 702.82 634.74 702.43 C 635.9 702.13 635.23 700.79 635.26 699.93 C 635.35 697.66 635.33 695.38 635.28 693.1 Z M 256.33 673.71 C 256.1 667.29 253.19 662.18 246.76 659.88 C 236.99 656.39 227.59 663.01 227.14 673.7 C 226.95 678.15 227.11 682.62 227.11 687.07 L 227.08 687.07 C 227.08 691.53 227.24 696 227.02 700.44 C 226.89 702.98 228.38 702.58 229.87 702.6 C 231.41 702.62 232.76 702.91 232.7 700.41 C 232.52 692.73 232.65 685.04 232.63 677.36 C 232.63 675.17 232.62 672.99 233.2 670.86 C 234.4 666.46 238.08 663.85 242.55 664.21 C 247.78 664.64 250.98 669.09 250.87 675.56 C 250.84 677.33 250.19 677.86 248.52 677.83 C 244.73 677.75 240.92 677.93 237.13 677.76 C 234.99 677.66 235.12 678.84 235.2 680.23 C 235.28 681.53 234.62 683.15 237.1 683.04 C 240.79 682.87 244.51 683.12 248.2 682.95 C 250.39 682.85 250.93 683.65 250.88 685.72 C 250.74 690.74 250.93 695.78 250.79 700.8 C 250.73 703.09 252.21 702.7 253.41 702.54 C 254.52 702.39 256.48 703.66 256.47 701.02 C 256.43 691.91 256.67 682.8 256.34 673.7 Z M 458.74 689.18 C 458.69 685.96 457.64 683.18 454.62 681.6 C 453.24 680.88 453.66 680.47 454.53 679.62 C 460.54 673.74 458.85 664.06 451.23 660.42 C 441.23 655.65 430.95 662.1 430.62 673.42 C 430.49 677.78 430.6 682.15 430.6 686.51 L 430.62 700.45 C 430.62 701.14 430.16 702.27 431.09 702.44 C 432.56 702.69 434.18 702.8 435.6 702.44 C 436.89 702.11 436.21 700.63 436.22 699.69 L 436.28 672.94 C 436.35 666.55 441.7 662.7 447.5 664.7 C 450.72 665.82 452.54 668.31 452.48 671.53 C 452.42 674.8 450.56 677.07 447.2 678.1 C 445.06 678.75 442.88 678.74 440.71 678.61 C 438.62 678.49 438.95 679.87 439.05 681.03 C 439.14 682.14 438.23 683.89 440.64 683.8 C 442.63 683.73 444.63 683.74 446.61 683.92 C 451.05 684.32 453.23 686.73 453.29 691.18 C 453.33 694.4 453.41 697.64 453.26 700.85 C 453.15 703.18 454.73 702.63 455.9 702.57 C 457.09 702.51 458.92 703.44 458.83 700.85 C 458.7 696.96 458.83 693.07 458.76 689.18 Z M 599.5 681.36 L 599.56 662.01 C 599.63 659.54 598.27 659.82 596.73 659.83 C 595.2 659.83 593.78 659.53 593.89 662.01 C 594.09 666.46 593.88 670.92 593.98 675.38 C 594.02 677.2 593.51 677.91 591.59 677.86 C 586.85 677.75 582.1 677.73 577.36 677.86 C 575.28 677.92 574.81 677.12 574.86 675.22 C 574.97 670.67 574.82 666.11 574.93 661.56 C 574.99 658.95 573.14 659.94 571.97 659.88 C 570.83 659.82 569.29 659.18 569.3 661.54 L 569.3 700.81 C 569.29 703.63 571.25 702.41 572.47 702.58 C 573.78 702.76 575.02 702.89 574.94 700.71 C 574.77 695.59 574.96 690.47 574.84 685.35 C 574.79 683.44 575.47 682.94 577.28 682.98 C 582.02 683.09 586.77 683.08 591.51 682.98 C 593.34 682.94 594.01 683.5 593.97 685.4 C 593.86 690.42 594.08 695.46 593.87 700.48 C 593.76 703.04 595.26 702.59 596.74 702.63 C 598.3 702.67 599.63 702.91 599.55 700.43 C 599.36 694.08 599.49 687.72 599.49 681.37 Z M 737.06 659.82 C 734.58 659.38 733.3 660.44 732.45 662.74 C 731.33 665.75 729.75 668.58 728.58 671.57 C 726.78 676.15 723.57 678.13 718.65 677.89 C 716.59 677.79 716.12 677.11 716.17 675.22 C 716.28 670.77 716.06 666.3 716.27 661.86 C 716.38 659.45 714.98 659.82 713.59 659.84 C 712.16 659.86 710.65 659.33 710.67 661.92 L 710.67 700.6 C 710.65 703.27 712.31 702.51 713.66 702.6 C 715.13 702.7 716.37 702.85 716.27 700.53 C 716.06 695.61 716.34 690.67 716.15 685.75 C 716.06 683.38 716.9 682.8 719.06 682.98 C 721.04 683.14 723.04 682.96 725.03 683.03 C 729.75 683.18 732.37 685.79 732.47 690.54 C 732.55 693.95 732.6 697.37 732.44 700.78 C 732.35 702.7 733.38 702.86 734.68 702.58 C 735.87 702.32 738 703.78 737.97 700.95 C 737.93 696.87 738.08 692.79 737.88 688.72 C 737.67 684.63 735.71 681.54 731.84 679.82 C 731.2 679.53 730.36 679.51 730 678.7 C 734.99 673.35 736.6 666.25 740.3 659.84 C 738.92 659.84 737.97 659.97 737.07 659.81 Z M 414.5 665.95 C 417.23 665.01 420.07 664.86 422.92 664.8 C 423.58 664.79 424.39 665.15 424.72 663.99 C 425.52 661.2 424.59 659.83 421.69 659.84 C 420.46 659.84 419.22 659.82 417.99 659.91 C 403.57 660.9 394.34 675.05 399.24 688.62 C 402.49 697.62 410.75 702.62 422.08 702.66 C 424.15 702.66 424.86 702.25 424.81 700.04 C 424.76 697.99 424.37 697.05 422.15 697.39 C 421.04 697.56 419.88 697.45 418.74 697.41 C 412.2 697.17 406.05 692.25 404.3 686 C 403.72 683.94 403.79 682.75 406.48 682.97 C 409.03 683.18 411.6 683.01 414.16 683.01 C 417.01 683.01 419.87 682.83 422.7 683.06 C 425.1 683.26 424.72 681.82 424.73 680.41 C 424.75 678.95 424.98 677.68 422.66 677.76 C 417.35 677.95 412.03 677.83 406.72 677.82 C 403.71 677.82 403.37 677.3 404.73 674.54 C 406.79 670.34 410.09 667.48 414.51 665.95 Z M 555.9 680.31 C 552.69 678.5 549.26 677.08 546.04 675.28 C 542.6 673.35 541.6 671.22 542.43 668.4 C 543.38 665.15 546.04 664.86 548.78 664.83 L 560.16 664.85 C 561.85 664.9 562.13 664.03 561.88 662.76 C 561.67 661.69 562.87 659.83 560.46 659.84 C 555.62 659.86 550.77 659.63 545.96 660.01 C 541.59 660.35 538.29 662.67 537 667.14 C 535.67 671.73 536.94 675.52 540.64 678.54 C 542.94 680.42 545.54 681.76 548.24 682.93 C 550.85 684.06 553.44 685.26 555.68 687.04 C 558.35 689.17 559.08 692.36 557.5 694.85 C 556.1 697.06 553.79 697.35 551.5 697.39 C 547.04 697.47 542.58 697.53 538.13 697.37 C 535.94 697.29 536.23 698.58 536.25 699.89 C 536.27 701.24 535.76 702.83 538.19 702.65 C 540.55 702.47 542.93 702.61 545.3 702.61 L 545.3 702.38 C 548.42 702.38 551.58 702.65 554.67 702.32 C 559.78 701.77 562.94 698.25 563.68 693.19 C 564.63 686.7 560.86 683.11 555.9 680.31 Z M 531.7 697.39 C 530.49 697.57 529.23 697.48 528.01 697.39 C 523.64 697.05 521.03 694.67 520.39 690.34 C 520.17 688.85 520.19 687.31 520.18 685.8 L 520.23 661.91 C 520.28 659.56 519.01 659.82 517.57 659.85 C 516.11 659.88 514.57 659.41 514.68 661.97 C 514.88 666.7 514.74 671.45 514.74 676.19 L 514.76 689.84 C 514.87 696.81 519.3 701.68 526.19 702.41 C 528.26 702.63 530.36 702.45 532.43 702.65 C 534.29 702.83 534.53 702.02 534.62 700.38 C 534.75 698.07 534.15 697.04 531.7 697.4 Z" stroke-linecap="round" />
</g>
</svg>